# xmcd
#
# Track frame offsets:
#	150
#	16485
#	32023
#	49891
#	64455
#	80963
#	102282
#	119017
#	132379
#	148719
#	164387
#
# Disc length: 2477 seconds
#
# Revision: 1
# Processed by: cddbd v1.5.2PL0 Copyright (c) Steve Scherf et al.
# Submitted via: EasyCDDAExtractor 16.0.1.1
#
DISCID=a709ab0b
DTITLE=Abalone Dots - Traveler
DYEAR=2008
DGENRE=Country
TTITLE0=Craighead County
TTITLE1=Devil's Blues
TTITLE2=A Simple Song
TTITLE3=Thje Ballad Of Lee Mckay
TTITLE4=Solo
TTITLE5=Lost
TTITLE6=Little Sparrow
TTITLE7=Break The Silence
TTITLE8=Lorraine
TTITLE9=Over Georgia
TTITLE10=Traveler
EXTD=YEAR: 2008
EXTT0=
EXTT1=
EXTT2=
EXTT3=
EXTT4=
EXTT5=
EXTT6=
EXTT7=
EXTT8=
EXTT9=
EXTT10=
PLAYORDER=
